<mxfile host="65bd71144e">
    <diagram id="2Uu6G821-9Wza9XmK5AW" name="Página-1">
        <mxGraphModel dx="432" dy="857" grid="1" gridSize="21" guides="1" tooltips="1" connect="1" arrows="1" fold="1" page="1" pageScale="1" pageWidth="1169" pageHeight="827" background="none" math="0" shadow="0">
            <root>
                <mxCell id="0"/>
                <mxCell id="1" parent="0"/>
                <mxCell id="160" value="" style="edgeStyle=none;jumpSize=13;html=1;strokeWidth=2;startSize=6;" parent="1" edge="1">
                    <mxGeometry relative="1" as="geometry">
                        <mxPoint x="273" y="167.5" as="sourcePoint"/>
                        <mxPoint x="273" y="167.5" as="targetPoint"/>
                    </mxGeometry>
                </mxCell>
                <mxCell id="161" value="" style="endArrow=none;html=1;jumpSize=13;startSize=6;strokeWidth=2;" parent="1" edge="1">
                    <mxGeometry width="50" height="50" relative="1" as="geometry">
                        <mxPoint x="168" y="315" as="sourcePoint"/>
                        <mxPoint x="651" y="315" as="targetPoint"/>
                    </mxGeometry>
                </mxCell>
                <mxCell id="162" value="" style="endArrow=classic;html=1;strokeWidth=2;" parent="1" edge="1">
                    <mxGeometry width="50" height="50" relative="1" as="geometry">
                        <mxPoint x="168" y="315" as="sourcePoint"/>
                        <mxPoint x="168" y="84" as="targetPoint"/>
                    </mxGeometry>
                </mxCell>
                <mxCell id="163" value="0" style="text;html=1;strokeColor=none;fillColor=none;align=center;verticalAlign=middle;whiteSpace=wrap;rounded=0;" parent="1" vertex="1">
                    <mxGeometry x="157.5" y="327" width="21" height="30" as="geometry"/>
                </mxCell>
                <mxCell id="164" value="2" style="text;html=1;strokeColor=none;fillColor=none;align=center;verticalAlign=middle;whiteSpace=wrap;rounded=0;" parent="1" vertex="1">
                    <mxGeometry x="199.5" y="327" width="21" height="30" as="geometry"/>
                </mxCell>
                <mxCell id="165" value="10" style="text;html=1;strokeColor=none;fillColor=none;align=center;verticalAlign=middle;whiteSpace=wrap;rounded=0;" parent="1" vertex="1">
                    <mxGeometry x="367.5" y="327" width="21" height="30" as="geometry"/>
                </mxCell>
                <mxCell id="166" value="16" style="text;html=1;strokeColor=none;fillColor=none;align=center;verticalAlign=middle;whiteSpace=wrap;rounded=0;" parent="1" vertex="1">
                    <mxGeometry x="493.5" y="327" width="21" height="30" as="geometry"/>
                </mxCell>
                <mxCell id="167" value="18" style="text;html=1;strokeColor=none;fillColor=none;align=center;verticalAlign=middle;whiteSpace=wrap;rounded=0;" parent="1" vertex="1">
                    <mxGeometry x="525" y="327" width="42" height="30" as="geometry"/>
                </mxCell>
                <mxCell id="168" value="" style="rounded=0;whiteSpace=wrap;html=1;fillColor=#60a917;fontColor=#ffffff;strokeColor=#2D7600;" parent="1" vertex="1">
                    <mxGeometry x="127.5" y="84" width="21" height="21" as="geometry"/>
                </mxCell>
                <mxCell id="169" value="" style="rounded=0;whiteSpace=wrap;html=1;fillColor=#d80073;fontColor=#ffffff;strokeColor=#A50040;" parent="1" vertex="1">
                    <mxGeometry x="126.75" y="168" width="22.5" height="21" as="geometry"/>
                </mxCell>
                <mxCell id="170" value="" style="rounded=0;whiteSpace=wrap;html=1;fillColor=#1ba1e2;fontColor=#ffffff;strokeColor=#006EAF;" parent="1" vertex="1">
                    <mxGeometry x="127.5" y="126" width="21" height="21" as="geometry"/>
                </mxCell>
                <mxCell id="171" value="&lt;font color=&quot;#ffffff&quot;&gt;&lt;span style=&quot;font-family: -apple-system, BlinkMacSystemFont, &amp;quot;Segoe WPC&amp;quot;, &amp;quot;Segoe UI&amp;quot;, system-ui, Ubuntu, &amp;quot;Droid Sans&amp;quot;, sans-serif; font-size: 14px;&quot;&gt;τ&lt;/span&gt;1&lt;/font&gt;" style="text;html=1;strokeColor=none;fillColor=none;align=center;verticalAlign=middle;whiteSpace=wrap;rounded=0;" parent="1" vertex="1">
                    <mxGeometry x="63" y="79.5" width="60" height="30" as="geometry"/>
                </mxCell>
                <mxCell id="172" value="&lt;font color=&quot;#ffffff&quot;&gt;&lt;span style=&quot;font-family: -apple-system, BlinkMacSystemFont, &amp;quot;Segoe WPC&amp;quot;, &amp;quot;Segoe UI&amp;quot;, system-ui, Ubuntu, &amp;quot;Droid Sans&amp;quot;, sans-serif; font-size: 14px;&quot;&gt;τ&lt;/span&gt;2&lt;/font&gt;" style="text;html=1;strokeColor=none;fillColor=none;align=center;verticalAlign=middle;whiteSpace=wrap;rounded=0;" parent="1" vertex="1">
                    <mxGeometry x="63" y="121.5" width="60" height="30" as="geometry"/>
                </mxCell>
                <mxCell id="173" value="&lt;font color=&quot;#ffffff&quot;&gt;&lt;span style=&quot;font-family: -apple-system, BlinkMacSystemFont, &amp;quot;Segoe WPC&amp;quot;, &amp;quot;Segoe UI&amp;quot;, system-ui, Ubuntu, &amp;quot;Droid Sans&amp;quot;, sans-serif; font-size: 14px;&quot;&gt;τ&lt;/span&gt;3&lt;/font&gt;" style="text;html=1;strokeColor=none;fillColor=none;align=center;verticalAlign=middle;whiteSpace=wrap;rounded=0;" parent="1" vertex="1">
                    <mxGeometry x="63" y="163.5" width="60" height="30" as="geometry"/>
                </mxCell>
                <mxCell id="174" value="" style="rounded=0;whiteSpace=wrap;html=1;fillColor=#60a917;fontColor=#ffffff;strokeColor=#2D7600;" parent="1" vertex="1">
                    <mxGeometry x="168" y="84" width="21" height="21" as="geometry"/>
                </mxCell>
                <mxCell id="175" value="" style="rounded=0;whiteSpace=wrap;html=1;fillColor=#1ba1e2;fontColor=#ffffff;strokeColor=#006EAF;" parent="1" vertex="1">
                    <mxGeometry x="231" y="126" width="21" height="21" as="geometry"/>
                </mxCell>
                <mxCell id="178" value="" style="rounded=0;whiteSpace=wrap;html=1;fillColor=#60a917;fontColor=#ffffff;strokeColor=#2D7600;" parent="1" vertex="1">
                    <mxGeometry x="252" y="84" width="21" height="21" as="geometry"/>
                </mxCell>
                <mxCell id="179" value="" style="rounded=0;whiteSpace=wrap;html=1;fillColor=#1ba1e2;fontColor=#ffffff;strokeColor=#006EAF;" parent="1" vertex="1">
                    <mxGeometry x="441" y="126" width="21" height="21" as="geometry"/>
                </mxCell>
                <mxCell id="181" value="4" style="text;html=1;strokeColor=none;fillColor=none;align=center;verticalAlign=middle;whiteSpace=wrap;rounded=0;" parent="1" vertex="1">
                    <mxGeometry x="241.5" y="327" width="21" height="30" as="geometry"/>
                </mxCell>
                <mxCell id="182" value="6" style="text;html=1;strokeColor=none;fillColor=none;align=center;verticalAlign=middle;whiteSpace=wrap;rounded=0;" parent="1" vertex="1">
                    <mxGeometry x="283.5" y="327" width="21" height="30" as="geometry"/>
                </mxCell>
                <mxCell id="183" value="8" style="text;html=1;strokeColor=none;fillColor=none;align=center;verticalAlign=middle;whiteSpace=wrap;rounded=0;" parent="1" vertex="1">
                    <mxGeometry x="315" y="327" width="42" height="30" as="geometry"/>
                </mxCell>
                <mxCell id="184" value="12" style="text;html=1;strokeColor=none;fillColor=none;align=center;verticalAlign=middle;whiteSpace=wrap;rounded=0;" parent="1" vertex="1">
                    <mxGeometry x="409.5" y="327" width="21" height="30" as="geometry"/>
                </mxCell>
                <mxCell id="185" value="14" style="text;html=1;strokeColor=none;fillColor=none;align=center;verticalAlign=middle;whiteSpace=wrap;rounded=0;" parent="1" vertex="1">
                    <mxGeometry x="451.5" y="327" width="21" height="30" as="geometry"/>
                </mxCell>
                <mxCell id="186" value="" style="endArrow=classic;html=1;rounded=1;strokeWidth=2;endSize=6;sourcePerimeterSpacing=0;targetPerimeterSpacing=0;jumpSize=6;dashed=1;fillColor=#60a917;strokeColor=#2D7600;" parent="1" edge="1">
                    <mxGeometry width="50" height="50" relative="1" as="geometry">
                        <mxPoint x="251.66" y="84" as="sourcePoint"/>
                        <mxPoint x="251.66" y="42" as="targetPoint"/>
                    </mxGeometry>
                </mxCell>
                <mxCell id="188" value="" style="endArrow=classic;html=1;rounded=1;strokeWidth=2;endSize=6;sourcePerimeterSpacing=0;targetPerimeterSpacing=0;jumpSize=6;dashed=1;fillColor=#60a917;strokeColor=#2D7600;exitX=0;exitY=0;exitDx=0;exitDy=0;" parent="1" source="174" edge="1">
                    <mxGeometry width="50" height="50" relative="1" as="geometry">
                        <mxPoint x="315.0000000000001" y="105" as="sourcePoint"/>
                        <mxPoint x="168" y="42" as="targetPoint"/>
                    </mxGeometry>
                </mxCell>
                <mxCell id="189" value="" style="endArrow=classic;html=1;rounded=1;strokeWidth=2;endSize=6;sourcePerimeterSpacing=0;targetPerimeterSpacing=0;jumpSize=6;dashed=1;fillColor=#1ba1e2;strokeColor=#006EAF;exitX=0;exitY=0;exitDx=0;exitDy=0;" parent="1" edge="1">
                    <mxGeometry width="50" height="50" relative="1" as="geometry">
                        <mxPoint x="168" y="126" as="sourcePoint"/>
                        <mxPoint x="168" y="84" as="targetPoint"/>
                    </mxGeometry>
                </mxCell>
                <mxCell id="190" value="" style="endArrow=classic;html=1;rounded=1;strokeWidth=2;endSize=6;sourcePerimeterSpacing=0;targetPerimeterSpacing=0;jumpSize=6;dashed=1;fillColor=#1ba1e2;strokeColor=#006EAF;" parent="1" edge="1">
                    <mxGeometry width="50" height="50" relative="1" as="geometry">
                        <mxPoint x="294" y="126" as="sourcePoint"/>
                        <mxPoint x="294" y="84" as="targetPoint"/>
                    </mxGeometry>
                </mxCell>
                <mxCell id="192" value="" style="endArrow=classic;html=1;rounded=1;strokeWidth=2;endSize=6;sourcePerimeterSpacing=0;targetPerimeterSpacing=0;jumpSize=6;dashed=1;fillColor=#d80073;strokeColor=#A50040;" parent="1" edge="1">
                    <mxGeometry width="50" height="50" relative="1" as="geometry">
                        <mxPoint x="168" y="168" as="sourcePoint"/>
                        <mxPoint x="168" y="126" as="targetPoint"/>
                    </mxGeometry>
                </mxCell>
                <mxCell id="198" value="20" style="text;html=1;strokeColor=none;fillColor=none;align=center;verticalAlign=middle;whiteSpace=wrap;rounded=0;" parent="1" vertex="1">
                    <mxGeometry x="567" y="327" width="42" height="30" as="geometry"/>
                </mxCell>
                <mxCell id="216" value="" style="rounded=0;whiteSpace=wrap;html=1;fillColor=#e3c800;fontColor=#000000;strokeColor=#B09500;" parent="1" vertex="1">
                    <mxGeometry x="126" y="210" width="21" height="21" as="geometry"/>
                </mxCell>
                <mxCell id="217" value="&lt;font color=&quot;#ffffff&quot;&gt;&lt;span style=&quot;font-family: -apple-system, BlinkMacSystemFont, &amp;quot;Segoe WPC&amp;quot;, &amp;quot;Segoe UI&amp;quot;, system-ui, Ubuntu, &amp;quot;Droid Sans&amp;quot;, sans-serif; font-size: 14px;&quot;&gt;a&lt;/span&gt;&lt;/font&gt;" style="text;html=1;strokeColor=none;fillColor=none;align=center;verticalAlign=middle;whiteSpace=wrap;rounded=0;" parent="1" vertex="1">
                    <mxGeometry x="63" y="205.5" width="60" height="30" as="geometry"/>
                </mxCell>
                <mxCell id="218" value="" style="endArrow=classic;html=1;rounded=1;strokeWidth=2;endSize=6;sourcePerimeterSpacing=0;targetPerimeterSpacing=0;jumpSize=6;dashed=1;fillColor=#e3c800;strokeColor=#B09500;" parent="1" edge="1">
                    <mxGeometry width="50" height="50" relative="1" as="geometry">
                        <mxPoint x="189" y="210" as="sourcePoint"/>
                        <mxPoint x="189" y="168" as="targetPoint"/>
                    </mxGeometry>
                </mxCell>
                <mxCell id="219" value="" style="rounded=0;whiteSpace=wrap;html=1;fillColor=#e3c800;fontColor=#000000;strokeColor=#B09500;" parent="1" vertex="1">
                    <mxGeometry x="189" y="210" width="42" height="21" as="geometry"/>
                </mxCell>
                <mxCell id="221" value="" style="rounded=0;whiteSpace=wrap;html=1;fillColor=#e3c800;fontColor=#000000;strokeColor=#B09500;" parent="1" vertex="1">
                    <mxGeometry x="273" y="210" width="42" height="21" as="geometry"/>
                </mxCell>
                <mxCell id="236" value="" style="rounded=0;whiteSpace=wrap;html=1;fillColor=#60a917;fontColor=#ffffff;strokeColor=#2D7600;" parent="1" vertex="1">
                    <mxGeometry x="336" y="84" width="21" height="21" as="geometry"/>
                </mxCell>
                <mxCell id="237" value="" style="rounded=0;whiteSpace=wrap;html=1;fillColor=#60a917;fontColor=#ffffff;strokeColor=#2D7600;" parent="1" vertex="1">
                    <mxGeometry x="420" y="84" width="21" height="21" as="geometry"/>
                </mxCell>
                <mxCell id="238" value="" style="rounded=0;whiteSpace=wrap;html=1;fillColor=#60a917;fontColor=#ffffff;strokeColor=#2D7600;" parent="1" vertex="1">
                    <mxGeometry x="504" y="84" width="21" height="21" as="geometry"/>
                </mxCell>
                <mxCell id="239" value="" style="endArrow=classic;html=1;rounded=1;strokeWidth=2;endSize=6;sourcePerimeterSpacing=0;targetPerimeterSpacing=0;jumpSize=6;dashed=1;fillColor=#60a917;strokeColor=#2D7600;" parent="1" edge="1">
                    <mxGeometry width="50" height="50" relative="1" as="geometry">
                        <mxPoint x="336.0000000000001" y="84.00000000000011" as="sourcePoint"/>
                        <mxPoint x="336.0000000000001" y="42" as="targetPoint"/>
                    </mxGeometry>
                </mxCell>
                <mxCell id="240" value="" style="endArrow=classic;html=1;rounded=1;strokeWidth=2;endSize=6;sourcePerimeterSpacing=0;targetPerimeterSpacing=0;jumpSize=6;dashed=1;fillColor=#60a917;strokeColor=#2D7600;" parent="1" edge="1">
                    <mxGeometry width="50" height="50" relative="1" as="geometry">
                        <mxPoint x="420.0000000000001" y="84.00000000000011" as="sourcePoint"/>
                        <mxPoint x="420.0000000000001" y="42" as="targetPoint"/>
                    </mxGeometry>
                </mxCell>
                <mxCell id="241" value="" style="endArrow=classic;html=1;rounded=1;strokeWidth=2;endSize=6;sourcePerimeterSpacing=0;targetPerimeterSpacing=0;jumpSize=6;dashed=1;fillColor=#60a917;strokeColor=#2D7600;" parent="1" edge="1">
                    <mxGeometry width="50" height="50" relative="1" as="geometry">
                        <mxPoint x="503.3100000000001" y="84.00000000000011" as="sourcePoint"/>
                        <mxPoint x="503.3100000000001" y="42" as="targetPoint"/>
                    </mxGeometry>
                </mxCell>
                <mxCell id="242" value="" style="rounded=0;whiteSpace=wrap;html=1;fillColor=#1ba1e2;fontColor=#ffffff;strokeColor=#006EAF;" parent="1" vertex="1">
                    <mxGeometry x="315" y="126" width="21" height="21" as="geometry"/>
                </mxCell>
                <mxCell id="243" value="" style="endArrow=classic;html=1;rounded=1;strokeWidth=2;endSize=6;sourcePerimeterSpacing=0;targetPerimeterSpacing=0;jumpSize=6;dashed=1;fillColor=#1ba1e2;strokeColor=#006EAF;" parent="1" edge="1">
                    <mxGeometry width="50" height="50" relative="1" as="geometry">
                        <mxPoint x="419.3100000000001" y="126" as="sourcePoint"/>
                        <mxPoint x="419.3100000000001" y="84.00000000000011" as="targetPoint"/>
                    </mxGeometry>
                </mxCell>
                <mxCell id="244" value="" style="endArrow=classic;html=1;rounded=1;strokeWidth=2;endSize=6;sourcePerimeterSpacing=0;targetPerimeterSpacing=0;jumpSize=6;dashed=1;fillColor=#1ba1e2;strokeColor=#006EAF;" parent="1" edge="1">
                    <mxGeometry width="50" height="50" relative="1" as="geometry">
                        <mxPoint x="545.6600000000002" y="126" as="sourcePoint"/>
                        <mxPoint x="545.6600000000002" y="84.00000000000011" as="targetPoint"/>
                    </mxGeometry>
                </mxCell>
                <mxCell id="245" value="" style="rounded=0;whiteSpace=wrap;html=1;fillColor=#1ba1e2;fontColor=#ffffff;strokeColor=#006EAF;" parent="1" vertex="1">
                    <mxGeometry x="546" y="126" width="21" height="21" as="geometry"/>
                </mxCell>
                <mxCell id="248" value="" style="endArrow=classic;html=1;rounded=1;strokeWidth=2;endSize=6;sourcePerimeterSpacing=0;targetPerimeterSpacing=0;jumpSize=6;dashed=1;fillColor=#60a917;strokeColor=#2D7600;" parent="1" edge="1">
                    <mxGeometry width="50" height="50" relative="1" as="geometry">
                        <mxPoint x="588.0000000000002" y="84.00000000000011" as="sourcePoint"/>
                        <mxPoint x="588.0000000000002" y="42" as="targetPoint"/>
                    </mxGeometry>
                </mxCell>
                <mxCell id="249" value="22" style="text;html=1;strokeColor=none;fillColor=none;align=center;verticalAlign=middle;whiteSpace=wrap;rounded=0;" parent="1" vertex="1">
                    <mxGeometry x="609" y="327" width="42" height="30" as="geometry"/>
                </mxCell>
                <mxCell id="250" value="" style="rounded=0;whiteSpace=wrap;html=1;fillColor=#60a917;fontColor=#ffffff;strokeColor=#2D7600;" parent="1" vertex="1">
                    <mxGeometry x="588" y="84" width="21" height="21" as="geometry"/>
                </mxCell>
                <mxCell id="251" value="" style="rounded=0;whiteSpace=wrap;html=1;fillColor=#d80073;fontColor=#ffffff;strokeColor=#A50040;" parent="1" vertex="1">
                    <mxGeometry x="567" y="168" width="21" height="21" as="geometry"/>
                </mxCell>
                <mxCell id="254" value="" style="endArrow=classic;html=1;rounded=1;strokeWidth=2;endSize=6;sourcePerimeterSpacing=0;targetPerimeterSpacing=0;jumpSize=6;dashed=1;fillColor=#e3c800;strokeColor=#B09500;" parent="1" edge="1">
                    <mxGeometry width="50" height="50" relative="1" as="geometry">
                        <mxPoint x="273.46" y="210" as="sourcePoint"/>
                        <mxPoint x="273.46" y="168" as="targetPoint"/>
                    </mxGeometry>
                </mxCell>
                <mxCell id="256" value="" style="endArrow=classic;html=1;rounded=1;strokeWidth=2;endSize=6;sourcePerimeterSpacing=0;targetPerimeterSpacing=0;jumpSize=6;dashed=1;fillColor=#e3c800;strokeColor=#B09500;" parent="1" edge="1">
                    <mxGeometry width="50" height="50" relative="1" as="geometry">
                        <mxPoint x="587.9999999999999" y="210" as="sourcePoint"/>
                        <mxPoint x="587.9999999999999" y="168" as="targetPoint"/>
                    </mxGeometry>
                </mxCell>
                <mxCell id="257" value="" style="rounded=0;whiteSpace=wrap;html=1;fillColor=#e3c800;fontColor=#000000;strokeColor=#B09500;" parent="1" vertex="1">
                    <mxGeometry x="483" y="210" width="21" height="21" as="geometry"/>
                </mxCell>
                <mxCell id="258" value="" style="rounded=0;whiteSpace=wrap;html=1;fillColor=#e3c800;fontColor=#000000;strokeColor=#B09500;" parent="1" vertex="1">
                    <mxGeometry x="609" y="210" width="21" height="21" as="geometry"/>
                </mxCell>
                <mxCell id="259" value="&lt;font color=&quot;#ffffff&quot;&gt;&lt;span style=&quot;font-family: -apple-system, BlinkMacSystemFont, &amp;quot;Segoe WPC&amp;quot;, &amp;quot;Segoe UI&amp;quot;, system-ui, Ubuntu, &amp;quot;Droid Sans&amp;quot;, sans-serif; font-size: 14px;&quot;&gt;a1&lt;/span&gt;&lt;/font&gt;" style="text;html=1;strokeColor=none;fillColor=none;align=center;verticalAlign=middle;whiteSpace=wrap;rounded=0;" parent="1" vertex="1">
                    <mxGeometry x="168" y="189" width="21" height="21" as="geometry"/>
                </mxCell>
                <mxCell id="261" value="&lt;font color=&quot;#ffffff&quot;&gt;&lt;span style=&quot;font-family: -apple-system, BlinkMacSystemFont, &amp;quot;Segoe WPC&amp;quot;, &amp;quot;Segoe UI&amp;quot;, system-ui, Ubuntu, &amp;quot;Droid Sans&amp;quot;, sans-serif; font-size: 14px;&quot;&gt;a2&lt;/span&gt;&lt;/font&gt;" style="text;html=1;strokeColor=none;fillColor=none;align=center;verticalAlign=middle;whiteSpace=wrap;rounded=0;" parent="1" vertex="1">
                    <mxGeometry x="250.95999999999998" y="189" width="18" height="21" as="geometry"/>
                </mxCell>
                <mxCell id="262" value="&lt;font color=&quot;#ffffff&quot;&gt;&lt;span style=&quot;font-family: -apple-system, BlinkMacSystemFont, &amp;quot;Segoe WPC&amp;quot;, &amp;quot;Segoe UI&amp;quot;, system-ui, Ubuntu, &amp;quot;Droid Sans&amp;quot;, sans-serif; font-size: 14px;&quot;&gt;a3&lt;/span&gt;&lt;/font&gt;" style="text;html=1;strokeColor=none;fillColor=none;align=center;verticalAlign=middle;whiteSpace=wrap;rounded=0;" parent="1" vertex="1">
                    <mxGeometry x="399" y="189" width="18" height="21" as="geometry"/>
                </mxCell>
                <mxCell id="263" value="&lt;font color=&quot;#ffffff&quot;&gt;&lt;span style=&quot;font-family: -apple-system, BlinkMacSystemFont, &amp;quot;Segoe WPC&amp;quot;, &amp;quot;Segoe UI&amp;quot;, system-ui, Ubuntu, &amp;quot;Droid Sans&amp;quot;, sans-serif; font-size: 14px;&quot;&gt;a4&lt;/span&gt;&lt;/font&gt;" style="text;html=1;strokeColor=none;fillColor=none;align=center;verticalAlign=middle;whiteSpace=wrap;rounded=0;" parent="1" vertex="1">
                    <mxGeometry x="567" y="189" width="18" height="21" as="geometry"/>
                </mxCell>
                <mxCell id="264" value="&lt;font color=&quot;#ffffff&quot;&gt;&lt;span style=&quot;font-family: -apple-system, BlinkMacSystemFont, &amp;quot;Segoe WPC&amp;quot;, &amp;quot;Segoe UI&amp;quot;, system-ui, Ubuntu, &amp;quot;Droid Sans&amp;quot;, sans-serif; font-size: 14px;&quot;&gt;cs&lt;/span&gt;&lt;/font&gt;" style="text;html=1;strokeColor=none;fillColor=none;align=center;verticalAlign=middle;whiteSpace=wrap;rounded=0;" parent="1" vertex="1">
                    <mxGeometry x="66" y="273" width="60" height="21" as="geometry"/>
                </mxCell>
                <mxCell id="266" value="" style="rounded=0;whiteSpace=wrap;html=1;fillColor=#e3c800;fontColor=#000000;strokeColor=#B09500;" parent="1" vertex="1">
                    <mxGeometry x="525" y="210" width="21" height="21" as="geometry"/>
                </mxCell>
                <mxCell id="268" value="" style="rounded=0;whiteSpace=wrap;html=1;fillColor=#d80073;fontColor=#ffffff;strokeColor=#A50040;" parent="1" vertex="1">
                    <mxGeometry x="357" y="168" width="21" height="21" as="geometry"/>
                </mxCell>
                <mxCell id="269" value="" style="rounded=0;whiteSpace=wrap;html=1;fillColor=#d80073;fontColor=#ffffff;strokeColor=#A50040;" parent="1" vertex="1">
                    <mxGeometry x="399" y="168" width="21" height="21" as="geometry"/>
                </mxCell>
                <mxCell id="255" value="" style="endArrow=classic;html=1;rounded=1;strokeWidth=2;endSize=6;sourcePerimeterSpacing=0;targetPerimeterSpacing=0;jumpSize=6;dashed=1;fillColor=#e3c800;strokeColor=#B09500;" parent="1" edge="1">
                    <mxGeometry width="50" height="50" relative="1" as="geometry">
                        <mxPoint x="419.9999999999999" y="210" as="sourcePoint"/>
                        <mxPoint x="419.9999999999999" y="168" as="targetPoint"/>
                    </mxGeometry>
                </mxCell>
                <mxCell id="270" value="" style="endArrow=classic;html=1;rounded=1;strokeWidth=2;endSize=6;sourcePerimeterSpacing=0;targetPerimeterSpacing=0;jumpSize=6;dashed=1;fillColor=#d80073;strokeColor=#A50040;" parent="1" edge="1">
                    <mxGeometry width="50" height="50" relative="1" as="geometry">
                        <mxPoint x="357" y="168" as="sourcePoint"/>
                        <mxPoint x="357" y="126" as="targetPoint"/>
                    </mxGeometry>
                </mxCell>
                <mxCell id="271" value="" style="endArrow=classic;html=1;rounded=1;strokeWidth=2;endSize=6;sourcePerimeterSpacing=0;targetPerimeterSpacing=0;jumpSize=6;dashed=1;fillColor=#d80073;strokeColor=#A50040;" parent="1" edge="1">
                    <mxGeometry width="50" height="50" relative="1" as="geometry">
                        <mxPoint x="545.4300000000001" y="168" as="sourcePoint"/>
                        <mxPoint x="545.4300000000001" y="126" as="targetPoint"/>
                    </mxGeometry>
                </mxCell>
                <mxCell id="272" value="" style="rounded=0;whiteSpace=wrap;html=1;fillColor=#d80073;fontColor=#ffffff;strokeColor=#A50040;" parent="1" vertex="1">
                    <mxGeometry x="630" y="168" width="21" height="21" as="geometry"/>
                </mxCell>
                <mxCell id="273" value="" style="rounded=0;whiteSpace=wrap;html=1;fillColor=#a0522d;strokeColor=#6D1F00;glass=0;shadow=0;fontColor=#ffffff;" parent="1" vertex="1">
                    <mxGeometry x="126" y="273" width="21" height="21" as="geometry"/>
                </mxCell>
                <mxCell id="278" value="" style="endArrow=none;html=1;strokeWidth=2;fillColor=#a0522d;strokeColor=#6D1F00;rounded=0;" parent="1" edge="1">
                    <mxGeometry width="50" height="50" relative="1" as="geometry">
                        <mxPoint x="170.5" y="252" as="sourcePoint"/>
                        <mxPoint x="630" y="294" as="targetPoint"/>
                        <Array as="points">
                            <mxPoint x="189" y="252"/>
                            <mxPoint x="231" y="294"/>
                            <mxPoint x="273" y="294"/>
                            <mxPoint x="273" y="252"/>
                            <mxPoint x="315" y="294"/>
                            <mxPoint x="483" y="294"/>
                            <mxPoint x="483" y="252"/>
                            <mxPoint x="504" y="273"/>
                            <mxPoint x="525" y="273"/>
                            <mxPoint x="546" y="294"/>
                            <mxPoint x="588" y="294"/>
                            <mxPoint x="588" y="252"/>
                            <mxPoint x="609" y="252"/>
                            <mxPoint x="630" y="273"/>
                        </Array>
                    </mxGeometry>
                </mxCell>
                <mxCell id="279" value="" style="endArrow=classic;html=1;rounded=1;strokeWidth=2;endSize=6;sourcePerimeterSpacing=0;targetPerimeterSpacing=0;jumpSize=6;dashed=1;fillColor=#a0522d;strokeColor=#6D1F00;" parent="1" edge="1">
                    <mxGeometry width="50" height="50" relative="1" as="geometry">
                        <mxPoint x="272.43" y="273" as="sourcePoint"/>
                        <mxPoint x="272.43" y="231" as="targetPoint"/>
                    </mxGeometry>
                </mxCell>
                <mxCell id="280" value="" style="endArrow=classic;html=1;rounded=1;strokeWidth=2;endSize=6;sourcePerimeterSpacing=0;targetPerimeterSpacing=0;jumpSize=6;dashed=1;fillColor=#a0522d;strokeColor=#6D1F00;" parent="1" edge="1">
                    <mxGeometry width="50" height="50" relative="1" as="geometry">
                        <mxPoint x="378.00000000000006" y="277.5" as="sourcePoint"/>
                        <mxPoint x="378.00000000000006" y="235.5" as="targetPoint"/>
                    </mxGeometry>
                </mxCell>
                <mxCell id="281" value="" style="endArrow=classic;html=1;rounded=1;strokeWidth=2;endSize=6;sourcePerimeterSpacing=0;targetPerimeterSpacing=0;jumpSize=6;dashed=1;fillColor=#a0522d;strokeColor=#6D1F00;" parent="1" edge="1">
                    <mxGeometry width="50" height="50" relative="1" as="geometry">
                        <mxPoint x="483.00000000000006" y="277.5" as="sourcePoint"/>
                        <mxPoint x="483.00000000000006" y="235.5" as="targetPoint"/>
                    </mxGeometry>
                </mxCell>
                <mxCell id="282" value="" style="endArrow=classic;html=1;rounded=1;strokeWidth=2;endSize=6;sourcePerimeterSpacing=0;targetPerimeterSpacing=0;jumpSize=6;dashed=1;fillColor=#a0522d;strokeColor=#6D1F00;" parent="1" edge="1">
                    <mxGeometry width="50" height="50" relative="1" as="geometry">
                        <mxPoint x="588" y="273" as="sourcePoint"/>
                        <mxPoint x="588" y="231" as="targetPoint"/>
                    </mxGeometry>
                </mxCell>
                <mxCell id="285" value="&lt;font color=&quot;#d80073&quot;&gt;¡deadline!&lt;/font&gt;" style="text;html=1;strokeColor=none;fillColor=none;align=center;verticalAlign=middle;whiteSpace=wrap;rounded=0;" parent="1" vertex="1">
                    <mxGeometry x="295.5" y="163.5" width="60" height="30" as="geometry"/>
                </mxCell>
            </root>
        </mxGraphModel>
    </diagram>
</mxfile>